<?xml version="1.0" encoding="UTF-8"?>
<svg xmlns="http://www.w3.org/2000/svg" viewBox="0 0 681.63 785.35">
  <defs>
    <style>
      *{
        fill: rgb(0, 0, 0);
        transition: 0.5s ease;
      }

      .cls-1, .cls-2 {
        font-size: 120px;
      }

      .cls-1, .cls-2, .cls-3 {
        fill:rgb(0, 0, 0);
        font-family: CourierNewPS-BoldMT, 'Courier New';
        font-weight: 700;
      }

      .cls-2 {
        letter-spacing: .2em;
      }

      .cls-3 {
        font-size: 72px;
        letter-spacing: .2em;
      }

      #small {
        display: none;
      }

      #wide {
        display: none;
      }

      #tall {
        display: block;
      }

      @media (min-height: 50rem) {
        #tall {
          display: block;
        }
        #wide, #small {
          display: none;
        }
      }

      @media (max-height: 40rem) and (max-width: 40rem) {
        #wide {
          display: block;
        }
        #tall, #small {
          display: none;
        }
      }

      @media (max-height: 20rem) {
        #small {
          display: block;
        }
        #tall, #wide {
          display: none;
        }
      }

      path:hover {
        fill: white;
      }
      

    </style>
  </defs>
  <g id="small">
    <g>
      <path d="M346.38,513.45c14.75-.7,29.34.97,43.51,4.99,16.41,4.66,29.24,15.42,47.15,11.18,17.7-4.19,30.8-24.56,51.02-16.35,11.68,4.74,17.15,17.33,15.08,29.45-3.67,21.42-48.9,39.36-68.22,40.78-24.1,1.76-36.89-6.96-58.32-12.75-20.43-5.52-34.83-4.22-55.43-.99-16.62,2.6-51.12,14.11-65.18,12.59-22.37-2.42-29.55-33.19-12.63-47.41l41.05-38.95.97-2.51c-52.29-20.07-92.01-70.42-103.69-124.82-12.13-56.52-1.99-118.33,34.72-163.66,66.55-82.19,176.59-84.26,244.95-3,82.37,97.91,40.26,269.74-89.79,299.16-10.54,2.38-21.83-.27-25.18,12.31ZM338.07,194.91c-68.34,1.84-111.14,70.44-108.74,134.08,4.14,109.86,128.05,172.59,197.86,73.77,52.95-74.96,11.37-210.56-89.11-207.86Z"/>
      <path d="M185.37,172.47l27.92,24.1c1.07,1.58-11.44,16.22-13.41,18.71l-49.54-42.29c-9.81-2.25-23.7,2.66-31.94-4.06-9.73-7.94-4.79-24.62,7.55-26.37,19.01-2.7,44.03,1.64,63.68.14,16.76,5.52,13.55,29.53-4.27,29.78Z"/>
      <path d="M495.36,173.44l-11.51-4.96c-7.93-9.04-5.1-21.84,6.45-25.59,19.49,1.31,45.79-3.26,64.51-.37,8.66,1.34,13.83,10.95,11.29,19.14-5.13,16.46-24,8.76-36.7,11.32l-48.59,42.45-14.42-17.47,28.98-24.51Z"/>
      <path d="M189.37,467.44c15.29,2.52,14.49,26.19.26,28.78-18.46,3.35-45.34-1.96-64.7.17-17.28-4.81-14.32-28.09,2.93-29.94,8.76-.94,18.63,1.16,27.46-.54l43.55-37.44,13.46,18.48-22.96,20.49Z"/>
      <path d="M489.37,466.45l-21.06-18.55,1.64-3.37,11.76-14.95,42.69,36.37c9.84,2.06,22.35-2.37,30.93,4.07,9.55,7.17,5.47,24.53-6.51,26.38-18.89,2.92-45.05-1.86-64.71-.16-17.26-6.4-12.98-29.22,5.27-29.78Z"/>
      <path d="M417.26,241.54c1.62,3.77,12.99,16.21,10.92,19.75l-166.8,142.17c-1.98-5.42-8.92-11.81-10.62-16.97-.46-1.41-.66-2.44.52-3.58l165.97-141.36Z"/>
      <path d="M362.01,326.53l67.89,57.91c.62,1.38-9.51,17.57-11.53,18.58l-72.98-62.06,16.62-14.43Z"/>
      <path d="M263.98,241.5l69.43,59.43.5,2.56c-4.45,1.75-11.17,10.96-14.57,12.51-1.08.49-1.9.63-2.99.07l-60.99-52.1-3.86-4.82,12.48-17.64Z"/>
    </g>
  </g>
  <g id="tall">
    <g>
      <path d="M348.55,515.59c14.75-.7,29.34.97,43.51,4.99,16.41,4.66,29.24,15.42,47.15,11.18,17.7-4.19,30.8-24.56,51.02-16.35,11.68,4.74,17.15,17.33,15.08,29.45-3.67,21.42-48.9,39.36-68.22,40.78-24.1,1.76-36.89-6.96-58.32-12.75s-34.83-4.22-55.43-.99c-16.62,2.6-51.12,14.11-65.18,12.59-22.37-2.42-29.55-33.19-12.63-47.41l41.05-38.95.97-2.51c-52.29-20.07-92.01-70.42-103.69-124.82-12.13-56.52-1.99-118.33,34.72-163.66,66.55-82.19,176.59-84.26,244.95-3,82.37,97.91,40.26,269.74-89.79,299.16-10.54,2.38-21.83-.27-25.18,12.31ZM340.25,197.05c-68.34,1.84-111.14,70.44-108.74,134.08,4.14,109.86,128.05,172.59,197.86,73.77,52.95-74.96,11.37-210.56-89.11-207.86Z"/>
      <path d="M187.55,174.6l27.92,24.1c1.07,1.58-11.44,16.22-13.41,18.71l-49.54-42.29c-9.81-2.25-23.7,2.66-31.94-4.06-9.73-7.94-4.79-24.62,7.55-26.37,19.01-2.7,44.03,1.64,63.68.14,16.76,5.52,13.55,29.53-4.27,29.78Z"/>
      <path d="M497.54,175.58l-11.51-4.96c-7.93-9.04-5.1-21.84,6.45-25.59,19.49,1.31,45.79-3.26,64.51-.37,8.66,1.34,13.83,10.95,11.29,19.14-5.13,16.46-24,8.76-36.7,11.32l-48.59,42.45-14.42-17.47,28.98-24.51Z"/>
      <path d="M191.55,469.58c15.29,2.52,14.49,26.19.26,28.78-18.46,3.35-45.34-1.96-64.7.17-17.28-4.81-14.32-28.09,2.93-29.94,8.76-.94,18.63,1.16,27.46-.54l43.55-37.44,13.46,18.48-22.96,20.49Z"/>
      <path d="M491.55,468.58l-21.06-18.55,1.64-3.37,11.76-14.95,42.69,36.37c9.84,2.06,22.35-2.37,30.93,4.07,9.55,7.17,5.47,24.53-6.51,26.38-18.89,2.92-45.05-1.86-64.71-.16-17.26-6.4-12.98-29.22,5.27-29.78Z"/>
      <path d="M419.44,243.67c1.62,3.77,12.99,16.21,10.92,19.75l-166.8,142.17c-1.98-5.42-8.92-11.81-10.62-16.97-.46-1.41-.66-2.44.52-3.58l165.97-141.36Z"/>
      <path d="M364.19,328.66l67.89,57.91c.62,1.38-9.51,17.57-11.53,18.58l-72.98-62.06,16.62-14.43Z"/>
      <path d="M266.16,243.64l69.43,59.43.5,2.56c-4.45,1.75-11.17,10.96-14.57,12.51-1.08.49-1.9.63-2.99.07l-60.99-52.1-3.86-4.82,12.48-17.64Z"/>
    </g>
    <text class="cls-3" transform="translate(124.34 647.79)"><tspan x="0" y="0">Avdunkad</tspan><tspan x="57.61" y="86.4">Qexare</tspan></text>
    <text class="cls-2" transform="translate(167.54 95.51)"><tspan x="0" y="0">2024</tspan></text>
  </g>
  <g id="wide">
    <g>
      <path d="M174.78,462.49c11.06-.52,22,.73,32.62,3.74,12.31,3.49,21.92,11.56,35.35,8.38s23.09-18.41,38.26-12.26c8.75,3.55,12.86,12.99,11.3,22.08-2.75,16.06-36.67,29.51-51.15,30.57-18.07,1.32-27.66-5.22-43.73-9.56s-26.11-3.16-41.56-.74c-12.46,1.95-38.33,10.58-48.87,9.44-16.77-1.81-22.15-24.88-9.47-35.54l30.78-29.2.73-1.88c-39.2-15.05-68.98-52.8-77.74-93.59s-1.49-88.72,26.03-122.71c49.89-61.62,132.4-63.17,183.65-2.25,61.76,73.41,30.18,202.24-67.32,224.3-7.9,1.79-16.37-.2-18.88,9.23ZM168.55,223.66c-51.24,1.38-83.33,52.81-81.53,100.53,3.1,82.37,96.01,129.41,148.35,55.31,39.7-56.2,8.53-157.87-66.81-155.85Z"/>
      <path d="M54.06,206.83l20.93,18.07c.8,1.18-8.58,12.16-10.05,14.02l-37.14-31.71c-7.36-1.69-17.77,2-23.95-3.04-7.3-5.95-3.59-18.46,5.66-19.77,14.26-2.02,33.02,1.23,47.75.11,12.57,4.14,10.16,22.14-3.2,22.33Z"/>
      <path d="M286.49,207.57l-8.63-3.72c-5.95-6.77-3.83-16.38,4.84-19.19,14.61.98,34.33-2.44,48.36-.27,6.49,1,10.37,8.21,8.46,14.35-3.85,12.34-17.99,6.57-27.52,8.48l-36.43,31.83-10.81-13.1,21.73-18.38Z"/>
      <path d="M57.06,428c11.47,1.89,10.86,19.64.2,21.57-13.84,2.51-33.99-1.47-48.51.13-12.96-3.61-10.74-21.06,2.2-22.45,6.57-.7,13.97.87,20.59-.41l32.65-28.07,10.09,13.86-17.21,15.36Z"/>
      <path d="M281.99,427.25l-15.79-13.91,1.23-2.53,8.82-11.21,32,27.27c7.38,1.55,16.76-1.77,23.19,3.05,7.16,5.38,4.1,18.39-4.88,19.78-14.16,2.19-33.77-1.39-48.51-.12-12.94-4.8-9.73-21.91,3.95-22.33Z"/>
      <path d="M227.93,258.62c1.22,2.82,9.74,12.16,8.19,14.81l-125.06,106.59c-1.48-4.06-6.69-8.85-7.96-12.72-.35-1.05-.5-1.83.39-2.68l124.44-105.99Z"/>
      <path d="M186.5,322.34l50.9,43.42c.46,1.04-7.13,13.17-8.65,13.93l-54.72-46.53,12.46-10.82Z"/>
      <path d="M113,258.59l52.05,44.56.38,1.92c-3.33,1.31-8.38,8.22-10.93,9.38-.81.37-1.42.47-2.24.06l-45.73-39.06-2.89-3.62,9.35-13.23Z"/>
    </g>
    <text class="cls-1" transform="translate(321.57 349.65)"><tspan x="0" y="0">exare</tspan></text>
  </g>
</svg>