<?xml version="1.0" encoding="UTF-8"?>
<svg xmlns="http://www.w3.org/2000/svg" viewBox="0 0 406.56 643.78">
  <defs>
    <style>
      .cls-1 {
        fill:rgb(0, 0, 0);
        font-family: CourierNewPS-BoldMT, 'Courier New';
        font-size: 84.7px;
        font-weight: 700;
      }

      .cls-2 {
        letter-spacing: .8em;
      }

      .cls-3 {
        letter-spacing: 1.15em;
      }
    #syndaText {
      animation: slideInFromTop 2.5s ease forwards;
    }

    #Q {
      animation: slideInFromBottom 2.5s ease forwards;
    }

    @keyframes slideInFromTop {
      from { transform: translateY(-120%); }
      to { transform: translateY(0); }
    }

    @keyframes slideInFromBottom {
      from { transform: translateY(120%); }
      to { transform: translateY(0); }
    }
    </style>
  </defs>
  <g id="Q">
    <g>
      <path d="M304,184.53c-.38-1.34-2.15-3.46-2.74-5.36-1.68-5.44-1.31-11.17-1.67-16.74-.84-12.93-1.7-26.04-2.24-39-.18-4.29.21-8.64.03-12.92l-1.44,7.6c-.02.09-.02.18-.01.27.48,5.42-.38,10.76-.75,16.07-.35,4.97-.01,24.29-8.86,21.42-5.72-1.86-6.52-14.98-6.67-20.85-.01-.47-.35-.87-.81-.96-3.8-.78-3.73-4.51-4.71-7.77-.12-.41-.51-.7-.95-.71-6.06-.06-6.77-4.6-7.85-9.87-2.73-13.4-2.06-27.4-2.51-40.94-.05-1.59-.7-2.95-.77-4.38-.18-3.54.14-7.14,0-10.68-1.29-.17-.69,1.67-.73,2.57-.43,10.83-1.21,21.55-1.47,32.33,0,.05,0,.1-.02.15-.87,4.45-.69,20.26-8.83,16.13-2.37-1.2-3.44-7.28-4.02-12.96-.13-1.23-1.92-1.25-2.05-.02-.69,6.24-1.69,13.16-4.22,14.45-7.99,4.07-9.94-10.16-10.27-16.83-.04-.79-.91-1.22-1.58-.8-4.83,2.97-7.3-2.14-7.34-7.28,0-.63-.56-1.07-1.18-1.01-7.34.81-6.1-11.13-6.15-16.43-1.23.06-.75,2.23-1.29,3.49-1.09,2.54-3.2,3.36-5.69,3.24-.59-.03-1.09.44-1.08,1.03.02,2.16-.33,4.38-1.69,6.13-.08.1-.18.2-.29.27-1.9,1.22-3.87.68-5.21-.99-.14-.18-.22-.41-.22-.64v-11.06s-1.64,7.49-1.64,7.49c0,.04-.02.08-.03.12-.73,2.08-1.3,4.11-3.91,4.17-4.16.1-3.22-4.43-4.13-6.87-.39-1.04-1.55-1.01-2.09-1.75-3.54-4.8-3.49-36.28-4.38-44.72,0-.04,0-.07-.02-.11l-1.46-6.93-.72,54.87c0,.59-2.09,2.59-2.69,2.55l-7.4-2.19c-.52-.04-.98-2.58-1-3.1-.16-3.22.21-4.36.03-7.59-.23-4.16-1.5-9.99-1.5-14,0-2.76,1.69-3.53,2.54-4.08.29-.19.46-.5.46-.85l2.32-37.31c0-.53,1.75-5.45,2.28-5.49l4.57-2.62c.6-.05,1.11.43,1.11,1.03l-1.22,3.84c-.43,1.36.15,2.86,1.41,3.54.37.2.69.33.87.32l2.51-.05c.45,0,.85-.32.97-.75,1.31-4.62,2.16-6.86,7.71-7.24,2.86-.2,3.17,1.01,4.33,2.69.35.51,1.08.61,1.54.2,6.17-5.44,6.79-.4,9.55,4.39.47.81,2.52,2.42,2.52,2.63v8.35c0,1.27,1.85,1.42,2.05.17l.08-.49c.36-3.05.39-11.94,1.63-13.84,1.65-2.54,3.96-2.22,5.74-.38.32.33.84.42,1.24.19,6.41-3.62,6.94,3.32,7.62,8.58.05.42.36.76.77.86,1.04.26,3.02.74,3.96.98.33.08.6.32.72.63.66,1.73,1.1,3.31,1.26,5.23,1.82,22.11-.96,46.7.7,69.26.06.86.31,3.95,1.47,4.05.13-2.56-.17-5.17,0-7.73.55-7.95,1.31-16.31,1.51-24.27.29-11.97-2.06-35.36,1.61-45.53,2.84-7.88,8.87-6.17,9.95,1.5,1.28,9.08.75,24.56.96,34.39.17,7.85-.35,15.76-.03,23.61.04.9-.56,2.74.73,2.57,1.2-8.6.89-17.45,1.48-26.14.69-10.2,1.16-23.67,3.28-33.54.81-3.76,3.03-11.46,8.19-8.1.98.64,2.53,3.85,2.53,4.83v28.35c1.3.17.7-1.67.74-2.57.26-6.8.27-15.32,1.67-21.9.91-4.3,2.09-9.16,7.35-6.64.16.08.32.2.42.35,2.12,2.93,1.63,6.61,1.59,10.07,0,.7.66,1.19,1.33.99,2.03-.6,4.15-.02,4.56,2.42l-.02,105.28s0,.06,0,.09l.77,8.39,1.36-5.49c.02-.07.03-.14.03-.21.42-14.35,1.27-28.9,1.58-43.23.32-14.83-1.66-33.55.89-47.72.72-4.02,3.91-15.83,9.4-9.02,1.56,1.94,2.08,7.55,2.24,10.28,1,16.95.08,35.19.67,52.35.06,1.75.73,3.33.8,5.09.18,4.29-.21,8.64-.03,12.92,1.29.17.69-1.67.73-2.57.14-3.43-.22-6.93-.03-10.35.09-1.58.67-2.94.77-4.38.74-10.37,1.4-21.02,4.22-31.13,1.53-5.49,5.16-16.86,12.21-15.51,3.75,1.14,2.91,11.56,2.71,14.97-1.54,27.19-3.33,54.32-2.24,81.78.15,3.84,1.41,8.02.78,12.11,1.29.17.69-1.67.73-2.57.52-12.03,1.6-24.79,3.02-36.75,1.29-10.88,3.63-21.7,5-32.56.35-2.76.33-13.45,1.72-14.84s4.72-1.24,5.52.89c.04.11.06.24.06.36l.12,35.2c0,.27.11.52.29.71l1.86,1.93c.29.3.73.41,1.11.25,2.92-1.2,5.07-.41,6.12,2.8.04.11.05.22.05.34,0,2.42.09,30.56.1,35.65,0,.44.29.84.71.97,4.71,1.47,2.62,5.98,3.02,10.2.95,10.19,3.17,20.21,2.21,30.56.8.93,1.42.13,1.47-1.09.23-5.24,1.09-21.99,7.13-23.8,9.1-2.72,6.58,11.76,6.85,17.16,1.27,25.48,2.26,51.11,4.45,76.52,0,.02,0,.04,0,.06l.71,30.56,1.47-9.2c2.38-19.61,1.25-40.89,3.74-60.33.41-3.22,2.66-6.6,3.3-9.96.82-4.31-.27-13.71,5.53-13.9.1,0,.21,0,.31.03,4.83,1.01,4.59,12.51,4.87,16.78.01.19.08.37.2.53l.45.61c4.83.06,3.62,3.51,5.03,6.75,3.59,8.25,3.74,7.24,4.57,16.79,3.82,44.4-1.56,89.28-10.6,132.68-.04.17-.11.33-.22.46l-1.96,2.33c-.15.17-.35.3-.57.35-4.52.96-4.75-1.97-5.57-5.68-5.86-26.72-.55-55.49.56-82.24.29-6.97.25-15.15-.03-22.13-.04-.9.56-2.74-.73-2.57.55,4.16-.46,8.22-.74,12.15-1.69,23.47-3.49,46.56-5.9,69.96-.79,7.67-.5,17.57-2.39,24.86-1.12,4.32-3.4,3.85-4.5,4.32-.3.13-.49.43-.54.75-.81,5.04-2,10.05-2.78,15.09-.44,2.85-.25,12.6-2.78,13.42-1.2.39-3.12.37-4.15-.46-.12-.09-.2-.22-.27-.36l-.76-1.64c-.05-.11-.08-.23-.09-.35l-3.08-36.46s0-.04,0-.06l-.96-6.89c-.17-1.23-1.97-1.17-2.05.07-.43,6.32-1.21,13.43-4.37,15-.64.32-1.1.3-1.56.15-.68-.22-1.38.26-1.38.98,0,2.28.16,4.58-.06,6.85-1.05,10.71-4.3,31.92-7.48,41.86-.38,1.19-.93,2.31-1.55,3.39-.05.09-.11.17-.18.24-2.05,2.06-6.9-.37-6.9-2.7v-5.66c0-1.21-1.72-1.43-2.03-.26l-5.01,18.99c-.06.24-.21.45-.42.59l-2.51,1.72c-.23.15-.38.39-.43.66l-5.59,29.5c-.04.19-.13.37-.26.51l-1.74,1.88c-.12.13-.28.24-.45.29-1.76.49-4.07-.62-4.74-2.19-.16-.37-1.11-4.53-1.11-4.78v-1.99c0-1.23-1.77-1.43-2.04-.22l-1.1,4.96c-.51,2.58-2.03,3.2-4.57,2.78-3.29-.56-3.45-5.45-3.38-8.73.01-.67-.6-1.17-1.25-1.02-.94.22-1.79,0-2.77-.28-.59-.17-1.2.22-1.3.83-.73,4.31-1.38,13.18-3.43,15.5-2.13,2.42-6.67,1.07-6.67-2.25v-6.34c0-1.21-1.73-1.43-2.03-.26l-2.02,7.7c-1.02,4.56-3.86,10.97-8.64,6.11-.13-.14-.24-.31-.28-.49-.63-2.41-.19-4.99-.28-7.47-.03-.9.55-2.74-.73-2.57-.63,4.06-1.28,8.76-2.42,12.68-.55,1.87-.94,4.67-3.11,5.01l-2.56-.09c-.23,0-.46-.08-.63-.24-.73-.7-1.59-2.63-1.59-2.99v-7.84c0-1.21-1.72-1.43-2.03-.26l-2.03,7.72-4.96,23.76c-.84,2.34-3.54,2.7-5.39,1.34-1.49-1.42-1.67-2.87-1.82-4.8-.86-10.84.96-22.41,1.51-33.17.25-4.82.37-9.13.77-13.96.07-.81.51-4.1-.76-4.08-4.96,17.98-12.38,35.22-16.01,53.59-.64,3.24.45,9.52-4.25,9.67-1.29.04-3.31-1.23-3.31-2.51v-20.25l-1.46,6.17c-.01.05-.02.11-.03.17l-1.55,22.35c-.01.19-.07.38-.19.54-1.56,2.13-4.49,2.14-6.05.02-.13-.17-.19-.39-.19-.6l-.14-21.65s0-.05,0-.08l1.53-21.94s0-.07,0-.1c-.3-8.33.3-16.71-.03-25.03-.04-.9.56-2.74-.73-2.57l-7.7,49.12c-.02.14-.07.29-.15.41-2.43,3.78-5.48-.06-6.53-.05-.56,0-1.37,2.14-3.67,2.14-5.99,0-4-10.47-4.77-13.57-.15-.6-1.63-.67-2.31-2.26-.28-.66-2.2-11.26-2.15-11.86.13-1.52,1.77-1.98,2.09-3.08,1.29-4.37-.21-14.02,2.65-17.24.74-.84,2.48-1.22,2.65-1.92.85-3.5.77-14.18,5.54-14.96,4.48-.73,6.62,2.95,7.38,6.82.19.96,1.5,1.13,1.93.24l4.17-8.51c.1-.21.28-.39.5-.49,4.66-2.14,6.81,1.45,7.81,5.46.24.96,1.53,1.08,1.94.18.14-.31.35-.59.67-.8,1.53-1.01,3.37-.65,4.71.46.22.19.34.47.34.77v36.4c-.01,1.18,1.65,1.44,2.01.31,2.76-8.86,5.32-17.87,8.64-26.49,1.66-4.31,5.4-16.01,11.28-14.23.59.18,2.73,2.28,2.73,2.46v24.3c0,.56-2.12,4.24,0,4.78,1.95-10.1,3.93-20.48,6.84-30.35.97-3.3,4.91-18.83,10.6-13.72.17.15.28.37.32.59l.42,2.46c.19,1.13,1.8,1.15,2.03.03.8-3.86,1.76-7.72,2.83-11.45.83-2.86,3.95-17.01,9.39-11.27.96,1.02.14,2.68,1.45,2.59.33-3.24,2.3-19.31,3.99-20.69,1.45-1.18,5.47-1.33,5.6,1.17-.45,12.84-2.49,25.54-3.69,38.3-.08.83-.58,4.06.73,4.05,2.01-10.82,3.66-21.81,6.12-32.54.83-3.61,4.71-20.15,7.12-21.6.95-.57,2.27-.41,3.46-.35.55.03,1.02-.39,1.06-.94.82-9.28,1.37-18.87,2.95-28.06.84-4.92,1.01-7.43,6.23-5.94.53.15,1.11-.16,1.28-.69,1.53-4.83,6.34-5.43,8.38-.13.05.12.07.26.07.39-.05,12.1.94,24.46-.58,36.42,0,.03,0,.06,0,.09-.18,5.38.24,10.81.04,16.19-.06,1.73-.66,3.32-.8,5.09-.06.76-.49,3.49.76,3.34.69-7.83,2.59-15.5,3.6-23.28,2.8-21.57,2.1-43.26,5.43-64.53.8-5.15.31-3.01-.21-7.53-1.07-9.33.78-20.64.09-30.26-.02-.35-.24-.65-.54-.83-3.51-2.12-4.24-7.06-4.6-10.99-.42-4.53.99-23.77.27-25.31-1.43-3.05-2.29-3.53-2.59-7.71-1.63-22.58,4.12-47.33,5.19-69.99l.73-25.41-1.47,9.93c-2.27,19.64-1.63,41.62-5.38,60.9-.84,4.32-1.32,9.72-7.15,7.6-1.41-.72-2.04-3.64-2.2-5.16-1.85-17.73,1.99-38-.75-55.87,0-.05-.01-.1-.01-.15.09-15.93-.06-32.11.07-47.8.11-13.49-.25-26.78,1.43-40.17l-1.83,5.03c-.02.06-.04.13-.05.19-1.86,11.76-3.53,23.8-4,35.65-.86,21.52,2.17,46.89-.07,67.68-.09.84-.77,3.77-1.29,4.97-.12.29-.38.49-.68.57l-3.11.79c-2.08-.06-2.21-1.1-2.21-1.1ZM202.37,28.77c-.04-1.83.08-3.69,0-5.53-.04-.9.56-2.74-.73-2.57.04,1.83-.08,3.69,0,5.53.04.9-.56,2.74.73,2.57ZM365.86,374.89c-.02-4.76,1.86-9.72,2.21-14.36,3.03-39.3-.14-80.81-2.21-120.04-.73-13.74-.62-27.6-1.47-41.24-.12-1.99-.92-4.24-1.11-6.26-.46,6-1.33,12.05-1.84,18.05-1.66,19.35-2.94,38.67-2.17,58.21.14,16.31-2.75,35.51-1.54,51.55s7.27,32.84,6.74,49.08c0,.1,0,.2.04.3l1.35,4.71ZM350.35,282.07l-.65-54.78c0-.06,0-.11-.02-.17l-1.49-8.35c-.14,2.8.18,5.66,0,8.47-1.13,17.62-3.45,34.94-1.34,52.63.02.15.07.3.15.43l1.44,2.32c.55.89,1.92.49,1.91-.56ZM390.9,243.07l-.2-3.76s0-.1-.02-.14l-1.26-6.37c-.23-1.18-1.95-1.08-2.04.12l-.11,1.42c-.01.17.01.33.08.49l3.55,8.25ZM391.64,246.75v-1.47h-.72v1.47h.72ZM347.46,304.93v13.99l1.32-8.99c.02-.14.01-.29-.03-.43l-1.29-4.58ZM312.91,438.97c.29,1.06,1.82,1,2.01-.08.77-4.3,2.02-8.65,2.34-12.82,1.37-17.6.1-34.18-.74-51.55,0-.04,0-.08,0-.11-.06-1.22-1.8-1.36-2.02-.15l-.17.93s-.01.09-.02.14c-.84,21.03-1.98,41.98-1.5,63.17,0,.09.01.17.04.26l.06.22ZM295.69,456.76c-.09-1.82.08-5.06.3-8.47.08-1.3-1.81-1.53-2.05-.25l-1.53,8.33c-.1.55.26,1.09.81,1.2l1.23.25c.66.14,1.27-.38,1.24-1.06Z"/>
      <path d="M343.1,582.57c1.29.17.7-1.67.74-2.57.4-10.67,1.3-22.42,3.15-32.94.5-2.83,2.03-12.9,4.72-13.7,1.95-.58,3.93-.42,4.84,1.52,1.4,3,.15,11.83-.27,15.57-.9,8.14-2.51,16.32-3.53,24.46-.1.81-.65,2.67.65,2.49,1.11-8.9,2.42-17.82,3.89-26.67,1.58-9.48,3.04-22.03,5.89-30.93.57-1.79.92-3.65,2.31-5.05,4.2-2.22,6.04.85,6.35,4.8.58,7.4-.96,14.8-1.51,22.13-.37,4.96-.38,10.12-.73,15.1l3.89-24.46c1.01-4.62,1.47-8.85,7.22-5.43,1.1,1.38.79,6.15.67,8.17-.57,9.81-2.49,20.17-2.95,30.19-.3,6.61.26,13.3.04,19.92-.11,3.35-1.42,7.02-.76,10.64l1.85-5.87c2.62-11.75,5.27-21.51,4.77-33.52-.2-4.77-.07-12.76,6.64-10.32,3.91,4.3,1.13,10.59,1.42,16.25.23,4.44,1.99,9.05,1.51,13.59,2.45-1.6,3.29-7.02,6.39-7.96,2.41-.72,5.65-.33,6.12,2.46.83,4.94-2.69,3.5-4.34,5.95-1.92,2.86-5.47,15.49-6.37,19.41-.56,2.43-.67,8.01-1.44,9.61-1.31,2.74-6.27,1.14-6.27-1.11v-18.78l-5.68,21.94c-.9,4.47-5.6,13.15-10.14,6.77-.95-1.33-.58-3.35-1.85-3.67.42,4.95-.36,11.82-6.7,8.38-.01-1.31-1.4-4.25-1.4-5.06v-47.5l-11.27,64.21c-.47,2.28-1.01,6.8-2.74,8.31-.76.66-2.01.82-2.88,1.53-1.51,1.24-2.09,4.12-5.41,3.17-4.14-1.19-2.09-7.21-3.1-10.2-3.9,2.01-3.58,9.28-8.16,9.57-7.18.44-8.06-16.31-8.42-21.35l-2.15,12.94c-1.81,4.42-6.4,4.53-8.21,0l-2.89-13.67c-.13,3.93-.99,20.03-4.93,21.22-3.62,1.09-5.38-.81-5.39-4.29-3.36,1.14-5.89.05-7.52-3.15-.22-.43-1.31-3.64-1.31-3.84v-25.41c-1.29-.17-.7,1.67-.74,2.57-.25,6.41-.63,22.07-3.78,27.15-1.8,2.9-5.58,2.7-6.89-.26-1.52.65-1.37,5.78-4.06,6.99-6.42,2.9-7.11-6.71-7.39-11.01-.8-12.44,1.12-25.2,1.54-37.56.11-3.31.1-7.04-.03-10.35-.04-.9.56-2.74-.73-2.57l-1.48,26.88c-1.51,6.47.05,19.88-10.31,15.83.56,3.95-2.7,11.96-7.34,8.45-.58-.44-2.23-2.48-2.23-2.93v-56.34l-1.48,7.73-4.06,46.76c-1.42,2.13-3.7,3.12-5.95,1.55-2.93-2.42-1.17-11.78-2.52-15.52-1.28.03-.91,1.92-2.18,2.59-1.53.81-4.02.52-4.8-1.14-.17-.35-1.12-3.83-1.12-4.04v-29.83l-1.39,7.07c-.47,4.93-.24,21.38-4.08,23.9-2.58,1.69-6.31-.34-6.31-2.62v-46.03l-1.48,9.94c-.72,9.69-.97,19.69-2.29,29.38-.54,4-1.81,15.4-7.48,14.33-5.54-1.05-2.81-12.59-3.55-16.76l-3.46-.97c-.48-.72-.73-1.59-.84-2.45-1.4-11.38,1.49-24.61-.8-36.04l-.62-30.82c1.08-2.02,4.25-2.5,5.8-.86.96,1.02.14,2.68,1.45,2.59-.15-4.94,4.44-6.09,7.37-2.57v18.04l2.9-11.46c1.19-3.76,5.86-4.53,8.06-1.34.24.35,1.56,3.4,1.56,3.6v20.99l3.14-19.32c.91-2.34,1.16-7.84,3.48-9.04,2.69-1.32,3.96.36,5.89,1.85.04-3.28,3.86-6.09,6.46-3.51.62.61,1.71,7.71,1.71,9.03,0,6.03-1.37,13.71-1.57,19.85-.16,4.96-.17,10.55.03,15.5.04.9-.56,2.74.73,2.57.17-7.4,1.09-15.03,2.32-22.36.61-3.65,3.07-18.35,5.77-20,6.39-3.91,6.94,7.45,6.67,11.41,3.16-.35,4.47,1.31,4.96,4.24.95,5.63,1.36,13.92,1.65,19.71.22,4.4-.18,8.86,0,13.26.04.9-.56,2.74.73,2.57.18-6.93.69-14,1.56-20.91.54-4.31,2.88-23.46,7.06-24.65,1.94-.56,5.38,1.54,5.38,3.22v42.35c1.3.17.7-1.67.74-2.57.16-3.96-.45-7.93.74-11.79.19-3.66-.25-7.41,0-11.05.13-1.96.85-8.03,1.6-9.45,1.08-2.05,5.25-1.67,6.14.24.79,1.69-.4,4.42,1.83,5.16-.05-3.07.56-7.19,3.67-8.54,6.99-2.17,5.49,12.44,6.68,16.24l-.03,24.7.73-2.57,1.63-31.51c.69-2.2,3.68-2.72,5.43-1.32,2.55,2.04.35,11.88.27,15.13-.22,8.53-.32,18.05.03,26.55.04.9-.56,2.74.73,2.57l2.15-43.14c9.87-4.99,6.05,9.58,5.92,14.76-.3,12.02.31,27.12,1.57,39.01.07.7.34,2.77,1.41,2.63l2.25-34.94c.77-6.87-1.15-16.33-.02-22.85.79-4.54,6.72-4.72,7.37,1.44.83,7.93-.37,17.56-.02,25.8.44,10.49,2.62,21.1,2.21,31.67l1.47,10.68v-67.38c1.83-2.58,4.8-2.58,6.63,0v25.04l1.47,5.52.88-46.62c1.35-2.9,4.8-2.62,6.49-.14v45.29Z"/>
    </g>
  </g>
  <g id="syndaText">
    <text class="cls-1" transform="translate(67.41 643.78) rotate(-90)"><tspan class="cls-3"><tspan x="0" y="0">Synda</tspan></tspan><tspan class="cls-2"><tspan x="0" y="88">floden</tspan></tspan></text>
  </g>
</svg>